<svg xmlns="http://www.w3.org/2000/svg"  viewBox="0 0 50 50" width="50px" height="50px"><path d="M 15.263672 2.078125 C 9.3357681 4.5638182 4.5638182 9.3357681 2.078125 15.263672 L 3.921875 16.037109 C 6.2021818 10.599013 10.599013 6.2021818 16.037109 3.921875 L 15.263672 2.078125 z M 25 4 C 13.421 4 4 13.421 4 25 C 4 36.579 13.421 46 25 46 C 36.579 46 46 36.579 46 25 C 46 13.421 36.579 4 25 4 z M 24 10 L 26 10 L 26 23.277344 C 26.595 23.623344 27 24.261 27 25 C 27 25.178 26.968781 25.346719 26.925781 25.511719 L 32.707031 31.292969 L 31.292969 32.707031 L 25.511719 26.925781 C 25.346719 26.968781 25.178 27 25 27 C 23.895 27 23 26.105 23 25 C 23 24.262 23.405 23.624344 24 23.277344 L 24 10 z M 46.083984 33.951172 C 43.707243 39.408555 39.397438 43.799306 33.962891 46.078125 L 34.736328 47.921875 C 40.667781 45.434694 45.342757 40.658617 47.916016 34.75 L 46.083984 33.951172 z"/></svg>